<svg width="64" height="64" viewBox="0 0 64 64" fill="none" xmlns="http://www.w3.org/2000/svg">
<path fill-rule="evenodd" clip-rule="evenodd" d="M32 0C14.3269 0 0 14.3269 0 32C0 49.6731 14.3269 64 32 64C49.6731 64 64 49.6731 64 32C64 14.3269 49.6731 0 32 0ZM38.8004 35.5301L35.6004 32.3301L38.8004 29.1301C39.1004 30.1301 39.4004 31.2301 39.4004 32.3301C39.4004 33.4301 39.2004 34.5301 38.8004 35.5301ZM41.3004 26.7301L43.0004 24.9301C44.4004 27.0301 45.1004 29.6301 45.1004 32.2301C45.1004 34.8301 44.4004 37.5301 43.0004 39.6301L41.3004 37.9301C42.1004 36.2301 42.7004 34.3301 42.7004 32.3301C42.7004 30.3301 42.1004 28.4301 41.3004 26.7301ZM29.7004 18.3301L37.7004 26.3301L31.7004 32.3301L37.7004 38.3301L29.7004 46.3301H28.3004V35.7301L21.9004 42.1301L19.9004 40.1301L27.7004 32.3301L19.9004 24.5301L21.9004 22.5301L28.3004 28.9301V18.3301H29.7004ZM33.8004 26.3301L31.1004 23.6301V29.0301L33.8004 26.3301ZM31.1004 41.0301L33.8004 38.3301L31.1004 35.7301V41.0301Z" fill="#B3B3B8"/>
</svg>
