<svg width="64" height="85" viewBox="0 0 64 85" fill="none" xmlns="http://www.w3.org/2000/svg">
<path d="M63.5778 23.1979C63.3778 22.7109 63.1333 22.2461 62.8 21.8477L44.1778 1.54948C43.7556 1.08464 43.2444 0.752604 42.6889 0.464843C42.0444 0.132812 41.3333 0 40.5778 0H5.04444C2.28889 0 0 2.34635 0 5.29037V79.4883C0 82.4544 2.28889 85 5.04444 85H59.0667C61.8222 85 64 82.4544 64 79.4883V25.4557C64 24.6589 63.8889 23.8841 63.5778 23.1979ZM10.6667 25.2786C10.6667 24.9466 11.0667 24.8138 11.4222 24.8138H27.1556C27.5111 24.8138 27.7778 24.9466 27.7778 25.2786V27.6693C27.7778 27.9792 27.5333 28.3555 27.1556 28.3555H11.4222C11.0667 28.3555 10.6667 27.9792 10.6667 27.6693V25.2786ZM10.6667 53.612C10.6667 53.28 11.0667 53.1471 11.4222 53.1471H38.5778C38.9333 53.1471 39.1111 53.28 39.1111 53.612V56.0026C39.1111 56.3125 38.9556 56.6888 38.5778 56.6888H11.4222C11.0667 56.6888 10.6667 56.3125 10.6667 56.0026V53.612ZM46.2222 70.1693C46.2222 70.4792 46.0667 70.8555 45.6889 70.8555H11.4222C11.0667 70.8555 10.6667 70.4792 10.6667 70.1693V67.7786C10.6667 67.4466 11.0667 67.3138 11.4222 67.3138H45.6889C46.0444 67.3138 46.2222 67.4466 46.2222 67.7786V70.1693ZM53.3333 41.8359C53.3333 42.1458 53.1778 42.5221 52.8 42.5221H11.4222C11.0667 42.5221 10.6667 42.1458 10.6667 41.8359V39.4453C10.6667 39.1133 11.0667 38.9805 11.4222 38.9805H52.8C53.1556 38.9805 53.3333 39.1133 53.3333 39.4453V41.8359ZM42.9111 25.0352C41.6667 25.0352 40.4444 23.8841 40.4444 22.5339V7.92448L56.2667 25.0352H42.9111Z" fill="#B3B3B8"/>
</svg>
