<svg width="64" height="64" viewBox="0 0 64 64" fill="none" xmlns="http://www.w3.org/2000/svg">
<path fill-rule="evenodd" clip-rule="evenodd" d="M32 0C14.3271 0 0 14.3269 0 32C0 49.6731 14.3271 64 32 64C49.6729 64 64 49.6731 64 32C64 14.3269 49.6729 0 32 0ZM29.4727 35.6465H33.8086C35.668 35.6465 37.2773 35.3379 38.6367 34.7207C39.9961 34.1035 41.043 33.2285 41.7773 32.0957C42.5117 30.9629 42.875 29.623 42.8672 28.0762C42.875 26.5996 42.5195 25.2793 41.8008 24.1152C41.082 22.9434 40.043 22.0215 38.6836 21.3496C37.332 20.6699 35.707 20.3301 33.8086 20.3301H24.4336V31.5801H21.0234V35.6465H24.4336V37.1934H21.0234V41.2598H24.4336V44.3301H29.4727V41.2598H34.7109V37.1934H29.4727V35.6465ZM29.4727 31.5801H33.668C34.6211 31.5801 35.4023 31.4395 36.0117 31.1582C36.6211 30.877 37.0703 30.4785 37.3594 29.9629C37.6484 29.4473 37.793 28.8379 37.793 28.1348C37.793 27.4473 37.6484 26.8262 37.3594 26.2715C37.0703 25.7168 36.6289 25.2754 36.0352 24.9473C35.4414 24.6191 34.6992 24.4551 33.8086 24.4551H29.4727V31.5801Z" fill="#fff"/>
</svg>
