<svg width="62" height="62" viewBox="0 0 62 62" fill="none" xmlns="http://www.w3.org/2000/svg">
<path fill-rule="evenodd" clip-rule="evenodd" d="M7.97188 14.6752C11.5782 9.59724 16.8221 5.7636 22.9336 3.94421C21.5146 5.4563 20.2606 7.33035 19.1985 9.43589C18.3957 11.0274 17.6833 12.784 17.075 14.6752H7.97188ZM6.23389 17.45C4.23761 21.0909 3.02086 25.22 2.80825 29.6126H14.6905C14.7892 25.2762 15.348 21.1587 16.2821 17.45H6.23389ZM19.1492 17.45C18.1719 21.0845 17.5709 25.2093 17.466 29.6126H29.6123V17.45H19.1492ZM32.387 17.45V29.6126H44.533C44.4282 25.2093 43.8272 21.0845 42.8498 17.45H32.387ZM29.6123 32.3874H17.466C17.5709 36.7906 18.1719 40.9154 19.1492 44.5499H29.6123V32.3874ZM32.387 44.5499V32.3874H44.5331C44.4282 36.7906 43.8272 40.9154 42.8499 44.5499H32.387ZM29.6123 47.3247H20.0006C20.4993 48.7597 21.0609 50.0952 21.6759 51.3145C23.9371 55.7972 26.7527 58.4248 29.6123 59.0689V47.3247ZM32.387 59.0689V47.3247H41.9985C41.4998 48.7597 40.9382 50.0952 40.3231 51.3145C38.062 55.797 35.2466 58.4246 32.387 59.0689ZM32.387 14.6752V2.93118C35.2466 3.57548 38.062 6.20303 40.3231 10.6856C40.9382 11.9048 41.4997 13.2402 41.9984 14.6752H32.387ZM29.6123 2.93112V14.6752H20.0007C20.4994 13.2402 21.0609 11.9048 21.6759 10.6856C23.9371 6.20289 26.7527 3.57531 29.6123 2.93112ZM45.717 17.45C46.6511 21.1587 47.2099 25.2762 47.3085 29.6126H59.1918C58.9792 25.22 57.7624 21.0909 55.7662 17.45H45.717ZM54.0282 14.6752H44.9241C44.3157 12.784 43.6034 11.0274 42.8005 9.43589C41.7384 7.33016 40.4843 5.45596 39.0651 3.9438C45.1772 5.76303 50.4216 9.59686 54.0282 14.6752ZM14.6905 32.3874C14.7891 36.7237 15.3479 40.8412 16.282 44.5499H6.2338C4.23756 40.909 3.02084 36.7799 2.80824 32.3874H14.6905ZM17.075 47.3247H7.97176C11.5781 52.4027 16.822 56.2364 22.9336 58.0558C21.5146 56.5438 20.2606 54.6697 19.1985 52.5642C18.3957 50.9726 17.6833 49.216 17.075 47.3247ZM42.8005 52.5642C43.6034 50.9726 44.3158 49.216 44.9241 47.3247H54.0283C50.4217 52.4031 45.1773 56.237 39.0651 58.0563C40.4843 56.5441 41.7384 54.6699 42.8005 52.5642ZM59.1918 32.3874C58.9792 36.7799 57.7625 40.909 55.7663 44.5499H45.7171C46.6511 40.8412 47.2099 36.7237 47.3085 32.3874H59.1918ZM31 0C13.8792 0 0 13.8792 0 31C0 48.1209 13.8792 62.0001 31 62.0001C48.1209 62.0001 62.0001 48.1209 62.0001 31C62.0001 13.8792 48.1209 0 31 0Z" fill="#B3B3B8"/>
</svg>
