<svg width="65" height="51" viewBox="0 0 65 51" fill="none" xmlns="http://www.w3.org/2000/svg">
<path d="M62.6469 0.508057H3.21833C1.95405 0.508057 0.932617 1.52368 0.932617 2.78078V14.1444H64.9326V2.78078C64.9326 1.52368 63.9112 0.508057 62.6469 0.508057ZM0.932617 48.2353C0.932617 49.4924 1.95405 50.5081 3.21833 50.5081H62.6469C63.9112 50.5081 64.9326 49.4924 64.9326 48.2353V20.3944H0.932617V48.2353ZM42.2898 35.1671C42.2898 34.8546 42.5469 34.599 42.8612 34.599H54.6469C54.9612 34.599 55.2183 34.8546 55.2183 35.1671V40.2808C55.2183 40.5933 54.9612 40.849 54.6469 40.849H42.8612C42.5469 40.849 42.2898 40.5933 42.2898 40.2808V35.1671Z" fill="#BAC3CC"/>
</svg>
