<svg width="491" height="491" viewBox="0 0 491 491" fill="none" xmlns="http://www.w3.org/2000/svg">
<path d="M490.375 435.958V55.0417C490.375 25.1125 465.888 0.625 435.958 0.625H55.0417C25.1125 0.625 0.625 25.1125 0.625 55.0417V435.958C0.625 465.888 25.1125 490.375 55.0417 490.375H435.958C465.888 490.375 490.375 465.888 490.375 435.958ZM161.154 299.372L218.292 368.21L302.638 259.648C308.079 252.574 318.962 252.574 324.404 259.92L419.905 387.255C421.421 389.277 422.344 391.68 422.571 394.196C422.798 396.712 422.32 399.242 421.19 401.502C420.06 403.762 418.323 405.662 416.174 406.99C414.025 408.319 411.549 409.022 409.022 409.022H82.7942C71.3667 409.022 65.1088 395.962 72.1829 386.983L139.932 299.917C145.101 292.843 155.44 292.57 161.154 299.372Z" fill="black"/>
</svg>
