<svg width="22" height="22" viewBox="0 0 22 22" fill="none" xmlns="http://www.w3.org/2000/svg">
<path d="M20.8667 4.78672L17.2134 1.13339C16.7366 0.685516 16.1117 0.428533 15.4578 0.411324C14.8039 0.394115 14.1664 0.617881 13.6667 1.04005L1.6667 13.0401C1.23572 13.4747 0.967369 14.0443 0.906696 14.6534L0.333363 20.2134C0.315401 20.4087 0.340742 20.6055 0.407578 20.7899C0.474413 20.9743 0.581099 21.1416 0.720029 21.2801C0.844616 21.4036 0.992371 21.5014 1.15482 21.5677C1.31727 21.6341 1.49122 21.6677 1.6667 21.6667H1.7867L7.3467 21.1601C7.95576 21.0994 8.52541 20.831 8.96003 20.4001L20.96 8.40005C21.4258 7.90801 21.6775 7.2514 21.66 6.5741C21.6425 5.8968 21.3572 5.25406 20.8667 4.78672ZM16.3334 9.24005L12.76 5.66672L15.36 3.00005L19 6.64005L16.3334 9.24005Z" fill="#BAC3CC"/>
</svg>
