<svg width="42" height="43" viewBox="0 0 42 43" fill="none" xmlns="http://www.w3.org/2000/svg">
<path fill-rule="evenodd" clip-rule="evenodd" d="M18.6667 0V8.57611L12.6233 2.38889L9.33333 5.75722L18.6667 15.3128V19.1111H14.9567L5.62333 9.55555L2.33333 12.9239L8.37667 19.1111H0V23.8889H8.37667L2.33333 30.0761L5.62333 33.4444L14.9567 23.8889H18.6667V27.6872L9.33333 37.2428L12.6233 40.6111L18.6667 34.4239V43H21L23.3333 43V34.4239L29.3767 40.6111L32.6667 37.2428L23.3333 27.6872V23.8889H27.0433L36.3767 33.4444L39.6667 30.0761L33.6233 23.8889H42V19.1111H33.6233L39.6667 12.9239L36.3767 9.55556L27.0433 19.1111H23.3333V15.3128L32.6667 5.75722L29.3767 2.38889L23.3333 8.57611L23.3333 1.65689e-06L21 0H18.6667Z" fill="#D9D9D9"/>
</svg>
