<svg width="36" height="33" viewBox="0 0 36 33" fill="none" xmlns="http://www.w3.org/2000/svg">
<path fill-rule="evenodd" clip-rule="evenodd" d="M21.0841 20.2483C20.2226 21.1098 19.0542 21.5938 17.8359 21.5938C17.7009 21.5938 17.568 21.5876 17.4364 21.5761L22.412 16.6005C22.4235 16.7322 22.4296 16.8655 22.4296 17C22.4296 18.2183 21.9456 19.3868 21.0841 20.2483ZM31.289 1.04L33.0412 2.79055C33.0717 2.82102 33.0959 2.85721 33.1124 2.89704C33.1289 2.93688 33.1374 2.97957 33.1374 3.02269C33.1374 3.06581 33.1289 3.10851 33.1124 3.14835C33.0959 3.18818 33.0717 3.22437 33.0412 3.25484L3.83149 32.4629C3.76996 32.5244 3.68654 32.5589 3.59955 32.5589C3.51256 32.5589 3.42914 32.5244 3.36761 32.4629L1.61665 30.7119C1.55516 30.6504 1.52062 30.567 1.52062 30.48C1.52062 30.393 1.55516 30.3096 1.61665 30.248L5.95569 25.9106C3.77229 23.9413 1.9054 21.3239 0.35501 18.0582C0.199049 17.728 0.118164 17.3673 0.118164 17.0021C0.118164 16.6368 0.199049 16.2761 0.35501 15.9459C4.23509 7.73457 10.1167 3.62891 17.9999 3.62891C21.0873 3.62891 23.8678 4.26096 26.3413 5.52506L30.8251 1.04C30.8866 0.97851 30.9701 0.94397 31.057 0.94397C31.144 0.94397 31.2275 0.97851 31.289 1.04ZM11.5542 13.4425C10.9398 14.5275 10.617 15.7531 10.6171 17C10.6154 18.1859 10.9073 19.3538 11.467 20.3994L13.4611 18.4052C13.2036 17.601 13.1726 16.7413 13.3715 15.9206C13.5704 15.0999 13.9915 14.3499 14.5886 13.7528C15.1857 13.1556 15.9358 12.7345 16.7565 12.5356C17.5772 12.3367 18.4368 12.3678 19.2411 12.6253L21.2352 10.6311C20.1353 10.0439 18.902 9.7517 17.6556 9.78285C16.4091 9.81399 15.1919 10.1675 14.1227 10.8088C13.0534 11.4502 12.1685 12.3575 11.5542 13.4425ZM30.4896 8.5036C32.4827 10.4218 34.2011 12.9012 35.6448 15.9418C35.8008 16.272 35.8817 16.6327 35.8817 16.9979C35.8817 17.3632 35.8008 17.7239 35.6448 18.0541C31.7648 26.2654 25.8831 30.3711 17.9999 30.3711C15.1513 30.3711 12.5637 29.8328 10.2373 28.7563L15.2519 23.7417C16.5546 24.2401 17.9737 24.3505 19.3379 24.0598C20.702 23.769 21.9528 23.0894 22.939 22.1032C23.9253 21.1169 24.6049 19.8661 24.8956 18.502C25.1864 17.1379 25.076 15.7187 24.5776 14.416L30.4896 8.5036Z" fill="#D9D9D9"/>
</svg>
