<svg width="37" height="29" viewBox="0 0 37 29" fill="none" xmlns="http://www.w3.org/2000/svg">
<g clip-path="url(#clip0_164_2273)">
<path d="M6.72646 28.1909V26.3377C6.72646 25.6272 6.28218 25.164 5.52064 25.164C5.13994 25.164 4.72745 25.2875 4.44186 25.6891C4.21986 25.3493 3.90261 25.164 3.42667 25.164C3.10928 25.164 2.79218 25.2566 2.53824 25.5964V25.2257H1.87195V28.1909H2.53824V26.5539C2.53824 26.0289 2.82383 25.7817 3.26812 25.7817C3.71212 25.7817 3.93441 26.0597 3.93441 26.5539V28.1909H4.6007V26.5539C4.6007 26.0289 4.9178 25.7817 5.33029 25.7817C5.77458 25.7817 5.99658 26.0597 5.99658 26.5539V28.1909H6.72646ZM16.5938 25.2257H15.5151V24.33H14.8488V25.2257H14.246V25.8125H14.8487V27.1717C14.8487 27.8513 15.1343 28.2527 15.8958 28.2527C16.1814 28.2527 16.4985 28.1601 16.7208 28.0366L16.5303 27.4805C16.34 27.6041 16.118 27.635 15.9593 27.635C15.642 27.635 15.5151 27.4497 15.5151 27.1407V25.8125H16.5938V25.2257ZM22.2415 25.1638C21.8608 25.1638 21.607 25.3493 21.4483 25.5964V25.2257H20.782V28.1909H21.4483V26.523C21.4483 26.0289 21.6703 25.7509 22.0828 25.7509C22.2097 25.7509 22.3684 25.7818 22.4953 25.8126L22.6856 25.1949C22.5587 25.164 22.3684 25.164 22.2415 25.164V25.1638ZM13.7066 25.4728C13.3892 25.2566 12.9451 25.164 12.4691 25.164C11.7077 25.164 11.2001 25.5346 11.2001 26.1215C11.2001 26.6158 11.5808 26.8936 12.2471 26.9864L12.5644 27.0173C12.9134 27.079 13.1038 27.1717 13.1038 27.3262C13.1038 27.5423 12.85 27.6968 12.4057 27.6968C11.9615 27.6968 11.6125 27.5423 11.3903 27.3879L11.0731 27.8821C11.4221 28.1292 11.8981 28.2527 12.3739 28.2527C13.2623 28.2527 13.7701 27.8513 13.7701 27.2952C13.7701 26.7701 13.3576 26.4921 12.7229 26.3995L12.4057 26.3685C12.1201 26.3376 11.8981 26.276 11.8981 26.0907C11.8981 25.8744 12.1201 25.7509 12.4691 25.7509C12.85 25.7509 13.2307 25.9052 13.421 25.9979L13.7066 25.4728ZM31.411 25.164C31.0301 25.164 30.7763 25.3493 30.6176 25.5964V25.2257H29.9513V28.1909H30.6176V26.523C30.6176 26.0289 30.8398 25.7509 31.2521 25.7509C31.3792 25.7509 31.5379 25.7818 31.6648 25.8126L31.8551 25.1949C31.7282 25.164 31.5379 25.164 31.411 25.164ZM22.9078 26.7083C22.9078 27.6041 23.5422 28.2527 24.5259 28.2527C24.9701 28.2527 25.2873 28.1601 25.6046 27.913L25.2873 27.3879C25.0335 27.5732 24.7797 27.6658 24.4941 27.6658C23.9547 27.6658 23.574 27.2952 23.574 26.7083C23.574 26.1524 23.9547 25.7817 24.4941 25.7509C24.7797 25.7509 25.0335 25.8434 25.2873 26.0289L25.6046 25.5038C25.2873 25.2566 24.9701 25.164 24.5259 25.164C23.5422 25.164 22.9078 25.8126 22.9078 26.7083ZM29.0631 26.7083V25.2257H28.3968V25.5964C28.1746 25.3185 27.8574 25.164 27.4449 25.164C26.5882 25.164 25.922 25.8126 25.922 26.7083C25.922 27.6041 26.5882 28.2527 27.4449 28.2527C27.889 28.2527 28.2064 28.0984 28.3968 27.8203V28.1909H29.0631V26.7083ZM26.6199 26.7083C26.6199 26.1832 26.9689 25.7509 27.54 25.7509C28.0794 25.7509 28.4602 26.1524 28.4602 26.7083C28.4602 27.2334 28.0794 27.6658 27.54 27.6658C26.9689 27.6349 26.6199 27.2334 26.6199 26.7083ZM18.6562 25.164C17.7678 25.164 17.1331 25.7817 17.1331 26.7083C17.1331 27.635 17.7676 28.2527 18.6879 28.2527C19.132 28.2527 19.5763 28.1292 19.9253 27.8513L19.608 27.3879C19.3542 27.5732 19.0369 27.6968 18.7197 27.6968C18.3072 27.6968 17.8947 27.5115 17.7994 26.9862H20.0522V26.7393C20.084 25.7817 19.5129 25.164 18.6561 25.164H18.6562ZM18.6562 25.7199C19.0686 25.7199 19.3543 25.9671 19.4176 26.4305H17.8312C17.8947 26.0289 18.1803 25.7199 18.6562 25.7199ZM35.1866 26.7083V24.052H34.5203V25.5964C34.2981 25.3185 33.9809 25.164 33.5684 25.164C32.7117 25.164 32.0455 25.8126 32.0455 26.7083C32.0455 27.6041 32.7117 28.2527 33.5684 28.2527C34.0127 28.2527 34.3299 28.0984 34.5203 27.8203V28.1909H35.1866V26.7083ZM32.7435 26.7083C32.7435 26.1832 33.0924 25.7509 33.6636 25.7509C34.203 25.7509 34.5837 26.1524 34.5837 26.7083C34.5837 27.2334 34.203 27.6658 33.6636 27.6658C33.0924 27.6349 32.7435 27.2334 32.7435 26.7083ZM10.4703 26.7083V25.2257H9.80397V25.5964C9.58182 25.3185 9.26458 25.164 8.85209 25.164C7.99545 25.164 7.32916 25.8126 7.32916 26.7083C7.32916 27.6041 7.99545 28.2527 8.85209 28.2527C9.29638 28.2527 9.61362 28.0984 9.80397 27.8203V28.1909H10.4703V26.7083ZM7.99545 26.7083C7.99545 26.1832 8.34449 25.7509 8.91553 25.7509C9.45493 25.7509 9.83577 26.1524 9.83577 26.7083C9.83577 27.2334 9.45493 27.6658 8.91553 27.6658C8.34449 27.6349 7.99545 27.2334 7.99545 26.7083Z" fill="black"/>
<path d="M6.72646 28.1909V26.3377C6.72646 25.6272 6.28218 25.164 5.52064 25.164C5.13994 25.164 4.72745 25.2875 4.44186 25.6891C4.21986 25.3493 3.90261 25.164 3.42667 25.164C3.10928 25.164 2.79218 25.2566 2.53824 25.5964V25.2257H1.87195V28.1909H2.53824V26.5539C2.53824 26.0289 2.82383 25.7817 3.26812 25.7817C3.71212 25.7817 3.93441 26.0597 3.93441 26.5539V28.1909H4.6007V26.5539C4.6007 26.0289 4.9178 25.7817 5.33029 25.7817C5.77458 25.7817 5.99658 26.0597 5.99658 26.5539V28.1909H6.72646ZM16.5938 25.2257H15.5151V24.33H14.8488V25.2257H14.246V25.8125H14.8487V27.1717C14.8487 27.8513 15.1343 28.2527 15.8958 28.2527C16.1814 28.2527 16.4985 28.1601 16.7208 28.0366L16.5303 27.4805C16.34 27.6041 16.118 27.635 15.9593 27.635C15.642 27.635 15.5151 27.4497 15.5151 27.1407V25.8125H16.5938V25.2257ZM22.2415 25.1638C21.8608 25.1638 21.607 25.3493 21.4483 25.5964V25.2257H20.782V28.1909H21.4483V26.523C21.4483 26.0289 21.6703 25.7509 22.0828 25.7509C22.2097 25.7509 22.3684 25.7818 22.4953 25.8126L22.6856 25.1949C22.5587 25.164 22.3684 25.164 22.2415 25.164V25.1638ZM13.7066 25.4728C13.3892 25.2566 12.9451 25.164 12.4691 25.164C11.7077 25.164 11.2001 25.5346 11.2001 26.1215C11.2001 26.6158 11.5808 26.8936 12.2471 26.9864L12.5644 27.0173C12.9134 27.079 13.1038 27.1717 13.1038 27.3262C13.1038 27.5423 12.85 27.6968 12.4057 27.6968C11.9615 27.6968 11.6125 27.5423 11.3903 27.3879L11.0731 27.8821C11.4221 28.1292 11.8981 28.2527 12.3739 28.2527C13.2623 28.2527 13.7701 27.8513 13.7701 27.2952C13.7701 26.7701 13.3576 26.4921 12.7229 26.3995L12.4057 26.3685C12.1201 26.3376 11.8981 26.276 11.8981 26.0907C11.8981 25.8744 12.1201 25.7509 12.4691 25.7509C12.85 25.7509 13.2307 25.9052 13.421 25.9979L13.7066 25.4728ZM31.411 25.164C31.0301 25.164 30.7763 25.3493 30.6176 25.5964V25.2257H29.9513V28.1909H30.6176V26.523C30.6176 26.0289 30.8398 25.7509 31.2521 25.7509C31.3792 25.7509 31.5379 25.7818 31.6648 25.8126L31.8551 25.1949C31.7282 25.164 31.5379 25.164 31.411 25.164ZM22.9078 26.7083C22.9078 27.6041 23.5422 28.2527 24.5259 28.2527C24.9701 28.2527 25.2873 28.1601 25.6046 27.913L25.2873 27.3879C25.0335 27.5732 24.7797 27.6658 24.4941 27.6658C23.9547 27.6658 23.574 27.2952 23.574 26.7083C23.574 26.1524 23.9547 25.7817 24.4941 25.7509C24.7797 25.7509 25.0335 25.8434 25.2873 26.0289L25.6046 25.5038C25.2873 25.2566 24.9701 25.164 24.5259 25.164C23.5422 25.164 22.9078 25.8126 22.9078 26.7083ZM29.0631 26.7083V25.2257H28.3968V25.5964C28.1746 25.3185 27.8574 25.164 27.4449 25.164C26.5882 25.164 25.922 25.8126 25.922 26.7083C25.922 27.6041 26.5882 28.2527 27.4449 28.2527C27.889 28.2527 28.2064 28.0984 28.3968 27.8203V28.1909H29.0631V26.7083ZM26.6199 26.7083C26.6199 26.1832 26.9689 25.7509 27.54 25.7509C28.0794 25.7509 28.4602 26.1524 28.4602 26.7083C28.4602 27.2334 28.0794 27.6658 27.54 27.6658C26.9689 27.6349 26.6199 27.2334 26.6199 26.7083ZM18.6562 25.164C17.7678 25.164 17.1331 25.7817 17.1331 26.7083C17.1331 27.635 17.7676 28.2527 18.6879 28.2527C19.132 28.2527 19.5763 28.1292 19.9253 27.8513L19.608 27.3879C19.3542 27.5732 19.0369 27.6968 18.7197 27.6968C18.3072 27.6968 17.8947 27.5115 17.7994 26.9862H20.0522V26.7393C20.084 25.7817 19.5129 25.164 18.6561 25.164H18.6562ZM18.6562 25.7199C19.0686 25.7199 19.3543 25.9671 19.4176 26.4305H17.8312C17.8947 26.0289 18.1803 25.7199 18.6562 25.7199ZM35.1866 26.7083V24.052H34.5203V25.5964C34.2981 25.3185 33.9809 25.164 33.5684 25.164C32.7117 25.164 32.0455 25.8126 32.0455 26.7083C32.0455 27.6041 32.7117 28.2527 33.5684 28.2527C34.0127 28.2527 34.3299 28.0984 34.5203 27.8203V28.1909H35.1866V26.7083ZM32.7435 26.7083C32.7435 26.1832 33.0924 25.7509 33.6636 25.7509C34.203 25.7509 34.5837 26.1524 34.5837 26.7083C34.5837 27.2334 34.203 27.6658 33.6636 27.6658C33.0924 27.6349 32.7435 27.2334 32.7435 26.7083ZM10.4703 26.7083V25.2257H9.80397V25.5964C9.58182 25.3185 9.26458 25.164 8.85209 25.164C7.99545 25.164 7.32916 25.8126 7.32916 26.7083C7.32916 27.6041 7.99545 28.2527 8.85209 28.2527C9.29638 28.2527 9.61362 28.0984 9.80397 27.8203V28.1909H10.4703V26.7083ZM7.99545 26.7083C7.99545 26.1832 8.34449 25.7509 8.91553 25.7509C9.45493 25.7509 9.83577 26.1524 9.83577 26.7083C9.83577 27.2334 9.45493 27.6658 8.91553 27.6658C8.34449 27.6349 7.99545 27.2334 7.99545 26.7083Z" fill="#BAC3CC"/>
<path d="M13 3H23V20H13V3Z" fill="#9FADB1"/>
<path d="M14.1191 11.4497C14.1191 7.89768 15.8324 4.74704 18.4657 2.70839C16.5305 1.2258 14.0875 0.330078 11.4223 0.330078C5.10817 0.330078 0 5.30296 0 11.4497C0 17.5964 5.10817 22.5694 11.4222 22.5694C14.0873 22.5694 16.5303 21.6737 18.4657 20.1909C15.8324 18.1832 14.1191 15.0018 14.1191 11.4497Z" fill="#9FADB1"/>
<path d="M36.9633 11.4497C36.9633 17.5964 31.8551 22.5694 25.5411 22.5694C22.876 22.5694 20.433 21.6737 18.4976 20.1909C21.1627 18.1524 22.8443 15.0018 22.8443 11.4497C22.8443 7.89768 21.1309 4.74704 18.4976 2.70839C20.4328 1.2258 22.876 0.330078 25.5411 0.330078C31.8551 0.330078 36.9634 5.33392 36.9634 11.4497H36.9633Z" fill="#E7A079"/>
<path d="M36.9633 11.4497C36.9633 17.5964 31.8551 22.5694 25.5411 22.5694C22.876 22.5694 20.433 21.6737 18.4976 20.1909C21.1627 18.1524 22.8443 15.0018 22.8443 11.4497C22.8443 7.89768 21.1309 4.74704 18.4976 2.70839C20.4328 1.2258 22.876 0.330078 25.5411 0.330078C31.8551 0.330078 36.9634 5.33392 36.9634 11.4497H36.9633Z" fill="#BAC3CC"/>
</g>
<defs>
<clipPath id="clip0_164_2273">
<rect width="37" height="28" fill="white" transform="translate(0 0.330078)"/>
</clipPath>
</defs>
</svg>
