<svg width="46" height="13" viewBox="0 0 46 13" fill="none" xmlns="http://www.w3.org/2000/svg">
<path fill-rule="evenodd" clip-rule="evenodd" d="M4.26136 0.0656612C4.67017 0.0631528 5.88515 -0.0490802 6.39979 1.73236C6.74645 2.93236 7.29867 4.89802 8.05644 7.62933H8.36505C9.1777 4.74979 9.73594 2.78413 10.0398 1.73236C10.5598 -0.0676369 11.8598 0.0656965 12.3798 0.0656965L16.3917 0.0657016V12.8657H12.3026V5.32244H12.0284L9.749 12.8657H6.6725L4.39305 5.31685H4.11885V12.8657H0.0297852V0.0657016L4.26136 0.0656612ZM22.2635 0.0657016V7.61455H22.5897L25.3625 1.40719C25.9007 0.171902 27.0479 0.0657016 27.0479 0.0657016H31.0049V12.8657H26.8304V5.31685H26.5042L23.7858 11.5242C23.2476 12.7539 22.0461 12.8657 22.0461 12.8657H18.0891V0.0657016H22.2635ZM45.4337 6.14834C44.8514 7.84074 43.0227 9.05278 40.9982 9.05278H36.6204V12.8657H32.6508V6.14834H45.4337Z" fill="#1EAF37"/>
<path fill-rule="evenodd" clip-rule="evenodd" d="M4.26136 0.0656612C4.67017 0.0631528 5.88515 -0.0490802 6.39979 1.73236C6.74645 2.93236 7.29867 4.89802 8.05644 7.62933H8.36505C9.1777 4.74979 9.73594 2.78413 10.0398 1.73236C10.5598 -0.0676369 11.8598 0.0656965 12.3798 0.0656965L16.3917 0.0657016V12.8657H12.3026V5.32244H12.0284L9.749 12.8657H6.6725L4.39305 5.31685H4.11885V12.8657H0.0297852V0.0657016L4.26136 0.0656612ZM22.2635 0.0657016V7.61455H22.5897L25.3625 1.40719C25.9007 0.171902 27.0479 0.0657016 27.0479 0.0657016H31.0049V12.8657H26.8304V5.31685H26.5042L23.7858 11.5242C23.2476 12.7539 22.0461 12.8657 22.0461 12.8657H18.0891V0.0657016H22.2635ZM45.4337 6.14834C44.8514 7.84074 43.0227 9.05278 40.9982 9.05278H36.6204V12.8657H32.6508V6.14834H45.4337Z" fill="#BAC3CC"/>
<path fill-rule="evenodd" clip-rule="evenodd" d="M41.1897 0.0656738H32.4426C32.6508 2.91539 35.0435 5.35493 37.5205 5.35493H45.7095C46.1821 2.98648 44.5553 0.0656738 41.1897 0.0656738Z" fill="#BAC3CC"/>
</svg>
