<svg width="334" height="301" viewBox="0 0 334 301" fill="none" xmlns="http://www.w3.org/2000/svg">
<path d="M33.6663 33.6668H83.6663L117 0.333496H217L250.333 33.6668H300.333C309.174 33.6668 317.652 37.1787 323.903 43.4299C330.154 49.6811 333.666 58.1596 333.666 67.0002V267C333.666 275.841 330.154 284.319 323.903 290.57C317.652 296.822 309.174 300.333 300.333 300.333H33.6663C24.8258 300.333 16.3473 296.822 10.0961 290.57C3.8449 284.319 0.333008 275.841 0.333008 267V67.0002C0.333008 58.1596 3.8449 49.6811 10.0961 43.4299C16.3473 37.1787 24.8258 33.6668 33.6663 33.6668ZM167 83.6668C144.898 83.6668 123.702 92.4466 108.074 108.075C92.4461 123.703 83.6663 144.899 83.6663 167C83.6663 189.102 92.4461 210.298 108.074 225.926C123.702 241.554 144.898 250.333 167 250.333C189.101 250.333 210.297 241.554 225.925 225.926C241.553 210.298 250.333 189.102 250.333 167C250.333 144.899 241.553 123.703 225.925 108.075C210.297 92.4466 189.101 83.6668 167 83.6668ZM167 117C180.261 117 192.978 122.268 202.355 131.645C211.732 141.022 217 153.739 217 167C217 180.261 211.732 192.979 202.355 202.356C192.978 211.732 180.261 217 167 217C153.739 217 141.021 211.732 131.644 202.356C122.268 192.979 117 180.261 117 167C117 153.739 122.268 141.022 131.644 131.645C141.021 122.268 153.739 117 167 117Z" fill="black"/>
</svg>
