<svg width="19" height="20" viewBox="0 0 19 20" fill="none" xmlns="http://www.w3.org/2000/svg">
<path fill-rule="evenodd" clip-rule="evenodd" d="M9.38674 0.722656C8.52351 0.722656 7.82372 1.42245 7.82372 2.28568V8.53784H1.57163C0.708397 8.53784 0.00860596 9.23763 0.00860596 10.1009C0.00860596 10.9641 0.708399 11.6639 1.57163 11.6639H7.82372V17.9159C7.82372 18.7792 8.52351 19.479 9.38674 19.479C10.25 19.479 10.9498 18.7792 10.9498 17.9159V11.6639H17.2019C18.0651 11.6639 18.7649 10.9641 18.7649 10.1009C18.7649 9.23763 18.0651 8.53784 17.2019 8.53784H10.9498V2.28568C10.9498 1.42245 10.25 0.722656 9.38674 0.722656Z" fill="#BAC3CC"/>
</svg>
