<svg width="25" height="25" viewBox="0 0 25 25" fill="none" xmlns="http://www.w3.org/2000/svg">
<path fill-rule="evenodd" clip-rule="evenodd" d="M2.32812 10.5312C2.32812 6.00079 6.00079 2.32812 10.5312 2.32812C15.0617 2.32812 18.7344 6.00079 18.7344 10.5312C18.7344 15.0617 15.0617 18.7344 10.5312 18.7344C6.00079 18.7344 2.32812 15.0617 2.32812 10.5312ZM10.5312 0.328125C4.89622 0.328125 0.328125 4.89622 0.328125 10.5312C0.328125 16.1663 4.89622 20.7344 10.5312 20.7344C12.9912 20.7344 15.2478 19.8638 17.0099 18.414C17.0344 18.4452 17.061 18.4752 17.0898 18.504L22.9023 24.3165C23.2928 24.707 23.926 24.707 24.3165 24.3165C24.707 23.926 24.707 23.2928 24.3165 22.9023L18.504 17.0898C18.4752 17.061 18.4452 17.0344 18.414 17.0099C19.8638 15.2478 20.7344 12.9912 20.7344 10.5312C20.7344 4.89622 16.1663 0.328125 10.5312 0.328125Z" fill="black"/>
</svg>
