<svg width="19" height="16" viewBox="0 0 19 16" fill="none" xmlns="http://www.w3.org/2000/svg">
<path d="M18.1385 2.48879C17.487 2.77749 16.7871 2.97256 16.0513 3.06073C16.8105 2.60645 17.3785 1.89148 17.6493 1.04921C16.936 1.47288 16.1554 1.77111 15.3413 1.93091C14.7938 1.34639 14.0687 0.958954 13.2785 0.828766C12.4883 0.698577 11.6772 0.832915 10.9712 1.21092C10.2652 1.58893 9.70371 2.18946 9.37395 2.91927C9.04419 3.64908 8.96461 4.46735 9.14755 5.24702C7.70226 5.17446 6.28838 4.7988 4.99767 4.14444C3.70695 3.49008 2.56825 2.57163 1.65547 1.4487C1.34337 1.98709 1.1639 2.6113 1.1639 3.27608C1.16356 3.87454 1.31093 4.46383 1.59295 4.99167C1.87498 5.51951 2.28293 5.96958 2.78061 6.30194C2.20343 6.28357 1.63899 6.12762 1.13425 5.84705V5.89386C1.1342 6.73322 1.42454 7.54675 1.95601 8.19641C2.48749 8.84608 3.22737 9.29185 4.0501 9.4581C3.51467 9.60301 2.95331 9.62435 2.40842 9.52052C2.64055 10.2427 3.09271 10.8743 3.70161 11.3268C4.3105 11.7792 5.04565 12.03 5.80413 12.0439C4.51656 13.0547 2.92643 13.6029 1.28953 13.6005C0.999567 13.6006 0.709851 13.5837 0.421875 13.5498C2.08343 14.6181 4.01759 15.1851 5.99295 15.1829C12.6798 15.1829 16.3353 9.64458 16.3353 4.84129C16.3353 4.68523 16.3314 4.52762 16.3244 4.37157C17.0355 3.85736 17.6492 3.2206 18.137 2.49114L18.1385 2.48879Z" fill="white"/>
</svg>
