<svg width="234" height="278" viewBox="0 0 234 278" fill="none" xmlns="http://www.w3.org/2000/svg">
<path d="M40.333 110.667H66.833V194C66.833 203.167 74.333 210.667 83.4997 210.667H150.166C159.333 210.667 166.833 203.167 166.833 194V110.667H193.333C208.166 110.667 215.666 92.6665 205.166 82.1665L128.666 5.66655C127.124 4.12149 125.293 2.8957 123.277 2.05934C121.261 1.22298 119.099 0.79248 116.916 0.79248C114.734 0.79248 112.572 1.22298 110.556 2.05934C108.54 2.8957 106.708 4.12149 105.166 5.66655L28.6663 82.1665C18.1663 92.6665 25.4997 110.667 40.333 110.667ZM0.333008 260.667C0.333008 269.833 7.83301 277.333 16.9997 277.333H217C226.166 277.333 233.666 269.833 233.666 260.667C233.666 251.5 226.166 244 217 244H16.9997C7.83301 244 0.333008 251.5 0.333008 260.667Z" fill="black"/>
</svg>
