<svg width="45" height="15" viewBox="0 0 45 15" fill="none" xmlns="http://www.w3.org/2000/svg">
<path d="M29.3186 0C30.7188 0 31.841 0.316623 32.5566 0.611042L32.0676 3.76013L31.7439 3.59263C31.0773 3.29821 30.221 3.01487 29.0399 3.03495C27.6259 3.03495 26.9723 3.68062 26.9723 4.28471C26.9641 4.96537 27.7361 5.41427 28.9985 6.08651C31.0822 7.12366 32.0452 8.3812 32.0317 10.0343C32.0036 13.0508 29.5391 15 25.7425 15C24.1228 14.9817 22.5623 14.6307 21.7188 14.2251L22.2258 10.9711L22.6915 11.2031C23.8777 11.7456 24.6457 11.9651 26.0913 11.9651C27.1294 11.9651 28.2436 11.5201 28.2524 10.546C28.2592 9.90995 27.7867 9.45645 26.3808 8.74417C25.0108 8.04897 23.1946 6.88442 23.2147 4.79634C23.2361 1.97165 25.7498 0 29.3186 0ZM0.0449334 0.461977H5.87558C6.66073 0.492367 7.29464 0.751154 7.51349 1.62334L8.77025 8.26382V8.26747L9.14778 10.2571L12.6879 0.461977H16.5174L10.8252 14.7994L6.99926 14.8031L3.95362 3.23372C5.76581 4.21651 7.30862 5.35361 8.20211 6.91841C7.97174 6.42327 7.6682 5.86435 7.27979 5.3135C6.82747 4.67201 5.85061 3.84376 5.4423 3.49139C4.0195 2.26359 2.08725 1.27197 0 0.747267L0.0449334 0.461977ZM18.0403 0.478527H21.7854L19.4426 14.7939H15.6976L18.0403 0.478527ZM39.1927 0.478527H42.0299L45 14.7939H41.5947C41.5947 14.7939 41.2569 13.1493 41.1471 12.6478C40.6118 12.6478 36.8685 12.6424 36.4473 12.6424C36.3048 13.0299 35.6742 14.7938 35.6742 14.7938H31.8213L37.2708 1.66751C37.6566 0.734722 38.3142 0.478527 39.1927 0.478527ZM39.4714 4.32883C39.2871 4.8613 38.9663 5.72118 38.9877 5.68342C38.9877 5.68342 37.8349 8.8308 37.5333 9.64786L40.5627 9.64598C40.2813 8.28094 39.9996 6.91596 39.7177 5.55103L39.4714 4.32883Z" fill="#BAC3CC"/>
</svg>
