<svg width="20" height="12" viewBox="0 0 20 12" fill="none" xmlns="http://www.w3.org/2000/svg">
<path fill-rule="evenodd" clip-rule="evenodd" d="M18.7398 1.27765C18.8693 0.851629 18.7398 0.537964 18.1195 0.537964H16.0713C15.5501 0.537964 15.3098 0.808715 15.1794 1.10756C15.1794 1.10756 14.1378 3.60128 12.6623 5.2211C12.1848 5.69082 11.9679 5.83985 11.7073 5.83985C11.577 5.83985 11.3811 5.69082 11.3811 5.26402V1.27765C11.3811 0.765801 11.2376 0.537964 10.8037 0.537964H7.58281C7.25744 0.537964 7.0616 0.775164 7.0616 1.00066C7.0616 1.4852 7.79972 1.59756 7.87541 2.96146V5.9249C7.87541 6.57486 7.75603 6.69268 7.49542 6.69268C6.80099 6.69268 5.11172 4.18725 4.10908 1.32057C3.9148 0.762679 3.71817 0.537964 3.19461 0.537964H1.14486C0.559666 0.537964 0.442627 0.808715 0.442627 1.10756C0.442627 1.63969 1.13706 4.28323 3.67682 7.77958C5.36999 10.1672 7.75369 11.4616 9.92516 11.4616C11.2274 11.4616 11.3882 11.1745 11.3882 10.679V8.87429C11.3882 8.29924 11.5114 8.18454 11.9242 8.18454C12.2285 8.18454 12.7489 8.33435 13.9646 9.48524C15.3534 10.8499 15.5821 11.4616 16.3639 11.4616H18.4121C18.9973 11.4616 19.2907 11.1745 19.1221 10.6065C18.9364 10.0416 18.2732 9.22151 17.3938 8.24852C16.9163 7.69453 16.2 7.09763 15.9823 6.79879C15.6788 6.41568 15.7654 6.24481 15.9823 5.90383C15.9823 5.90383 18.4792 2.45039 18.739 1.27765H18.7398Z" fill="white"/>
</svg>
