<svg width="22" height="14" viewBox="0 0 22 14" fill="none" xmlns="http://www.w3.org/2000/svg">
<path d="M20.5937 2.29628C20.4789 1.89465 20.2551 1.53102 19.9463 1.24407C19.6288 0.948293 19.2396 0.736717 18.8155 0.629311C17.2283 0.219196 10.8692 0.219196 10.8692 0.219196C8.21817 0.189629 5.5678 0.319674 2.93304 0.608598C2.50892 0.723939 2.12046 0.940242 1.8022 1.23827C1.48948 1.53322 1.26298 1.89694 1.14465 2.29545C0.860418 3.79651 0.722316 5.32065 0.732211 6.84732C0.722069 8.37261 0.859832 9.89625 1.14465 11.3992C1.26044 11.796 1.4861 12.1581 1.79966 12.4506C2.11322 12.743 2.50369 12.9543 2.93304 13.0662C4.5414 13.4754 10.8692 13.4754 10.8692 13.4754C13.5236 13.505 16.1773 13.375 18.8155 13.086C19.2396 12.9786 19.6288 12.7671 19.9463 12.4713C20.255 12.1844 20.4785 11.8207 20.5929 11.4191C20.8845 9.91858 21.0264 8.39382 21.0163 6.86637C21.0382 5.33246 20.8966 3.80051 20.5937 2.29545V2.29628ZM8.84754 9.68415V4.01131L14.1383 6.84815L8.84754 9.68415Z" fill="white"/>
</svg>
