<svg width="325" height="512" viewBox="0 0 325 512" fill="none" xmlns="http://www.w3.org/2000/svg">
<path d="M149.035 511.116V0.207275H181.765V511.116H149.035ZM235.849 168.847C234.253 152.748 227.401 140.242 215.293 131.327C203.186 122.413 186.754 117.956 165.998 117.956C151.895 117.956 139.987 119.952 130.275 123.943C120.562 127.802 113.111 133.19 107.922 140.109C102.866 147.027 100.338 154.877 100.338 163.658C100.072 170.976 101.602 177.362 104.929 182.817C108.388 188.272 113.111 192.996 119.098 196.987C125.086 200.846 132.004 204.238 139.854 207.165C147.704 209.959 156.086 212.354 165 214.35L201.722 223.131C219.551 227.123 235.916 232.445 250.817 239.097C265.719 245.75 278.624 253.932 289.535 263.645C300.445 273.357 308.893 284.8 314.88 297.971C321.001 311.143 324.127 326.244 324.26 343.275C324.127 368.288 317.741 389.975 305.101 408.336C292.595 426.564 274.5 440.733 250.817 450.845C227.267 460.824 198.861 465.813 165.599 465.813C132.603 465.813 103.864 460.757 79.3832 450.646C55.0352 440.534 36.0092 425.566 22.3051 405.741C8.73407 385.784 1.61593 361.103 0.950684 331.699H84.5721C85.5035 345.404 89.4284 356.846 96.347 366.026C103.399 375.074 112.779 381.926 124.487 386.582C136.328 391.106 149.7 393.368 164.601 393.368C179.237 393.368 191.943 391.239 202.72 386.981C213.63 382.724 222.079 376.803 228.066 369.219C234.053 361.636 237.047 352.921 237.047 343.075C237.047 333.895 234.319 326.178 228.864 319.925C223.542 313.671 215.692 308.349 205.314 303.959C195.07 299.568 182.496 295.577 167.595 291.984L123.09 280.808C88.6301 272.426 61.4216 259.321 41.4642 241.492C21.5068 223.663 11.5946 199.648 11.7277 169.446C11.5946 144.699 18.1806 123.078 31.4855 104.584C44.9235 86.0906 63.3508 71.6547 86.7674 61.2769C110.184 50.899 136.794 45.7101 166.597 45.7101C196.932 45.7101 223.409 50.899 246.027 61.2769C268.779 71.6547 286.474 86.0906 299.114 104.584C311.754 123.078 318.273 144.499 318.672 168.847H235.849Z" fill="white"/>
</svg>
