<svg width="339" height="421" viewBox="0 0 339 421" fill="none" xmlns="http://www.w3.org/2000/svg">
<path d="M287.003 146.998L267.245 190.704H0.415039L16.5805 146.998H287.003ZM248.885 230.619L227.131 275.324H0.415039L16.5805 230.619H248.885ZM338.892 37.8307L306.961 106.085C301.639 102.36 295.186 98.3016 287.602 93.9109C280.151 89.3873 271.569 85.5954 261.857 82.5353C252.277 79.3421 241.633 77.7455 229.925 77.7455C211.431 77.7455 195.332 82.4022 181.628 91.7156C167.924 101.029 157.28 115.531 149.696 135.223C142.246 154.914 138.52 180.193 138.52 211.061C138.52 242.194 142.246 267.54 149.696 287.098C157.28 306.524 167.924 320.826 181.628 330.007C195.332 339.054 211.431 343.578 229.925 343.578C241.633 343.578 252.277 342.048 261.857 338.988C271.436 335.928 279.818 332.269 287.003 328.011C294.321 323.754 300.441 319.829 305.364 316.236L337.695 384.491C323.193 396.465 306.761 405.512 288.4 411.633C270.039 417.62 250.548 420.613 229.925 420.613C195.066 420.613 164.199 412.364 137.323 395.866C110.58 379.235 89.6246 355.353 74.4569 324.219C59.2893 292.953 51.7055 255.233 51.7055 211.061C51.7055 167.022 59.2893 129.302 74.4569 97.9025C89.6246 66.5028 110.58 42.4874 137.323 25.8563C164.199 9.09206 195.066 0.709961 229.925 0.709961C251.346 0.709961 271.17 3.90313 289.398 10.2895C307.626 16.6759 324.124 25.8563 338.892 37.8307Z" fill="white"/>
</svg>
