<svg width="373" height="410" viewBox="0 0 373 410" fill="none" xmlns="http://www.w3.org/2000/svg">
<path d="M217.856 261.141H0.121094V191.889H215.461C231.693 191.889 244.998 189.494 255.376 184.704C265.754 179.915 273.404 173.129 278.327 164.348C283.25 155.567 285.711 145.189 285.711 133.214C285.711 121.506 283.25 110.929 278.327 101.482C273.404 92.0355 265.887 84.5183 255.775 78.9302C245.663 73.3421 233.024 70.5481 217.856 70.5481H144.014V409.025H58.1971V0.298096H217.856C250.187 0.298096 277.861 6.08573 300.879 17.661C324.029 29.1033 341.725 44.8031 353.966 64.7604C366.206 84.5848 372.26 107.07 372.127 132.216C372.26 158.56 366.073 181.378 353.566 200.67C341.06 219.962 323.231 234.864 300.081 245.375C276.93 255.886 249.522 261.141 217.856 261.141ZM233.223 287.485V356.737H0.121094V287.485H233.223Z" fill="white"/>
</svg>
