<svg width="238" height="239" viewBox="0 0 238 239" fill="none" xmlns="http://www.w3.org/2000/svg">
<g clip-path="url(#clip0_46_76)">
<path d="M209.85 133.23C204.11 171.46 174.91 202.02 137.38 209.77V191.74C148.25 188.94 158.16 183.76 166.53 176.8L144.3 157.93C136.95 162.81 128.14 165.66 118.66 165.66C93.03 165.66 72.26 144.88 72.26 119.26C72.26 93.64 93.04 72.86 118.66 72.86C128.17 72.86 137.01 75.72 144.37 80.63L166.59 61.77C158.21 54.78 148.28 49.58 137.38 46.78V29.06C172.06 36.23 199.62 62.85 208.14 97.01H235.92C225.44 41.77 176.91 0 118.61 0C60.31 0 11.79 41.77 1.31 97.01H29.09C37.72 62.42 65.87 35.55 101.17 28.79V46.45C68.27 54.33 43.8 83.93 43.8 119.25C43.8 154.57 68.26 184.17 101.17 192.05V210.03C63 202.72 33.19 171.91 27.38 133.23H0C6.85 192.67 57.34 238.83 118.61 238.83C179.88 238.83 230.38 192.67 237.22 133.23H209.84H209.85Z" fill="white"/>
</g>
<defs>
<clipPath id="clip0_46_76">
<rect width="237.23" height="238.83" fill="white"/>
</clipPath>
</defs>
</svg>
