<svg width="180" height="44" viewBox="0 0 180 44" fill="none" xmlns="http://www.w3.org/2000/svg">
<g clip-path="url(#clip0_258_1148)">
<path d="M37.747 24.3174C36.7145 31.2005 31.4621 36.7026 24.7114 38.098V34.8518C26.6666 34.3477 28.4492 33.415 29.9547 32.1619L25.9561 28.7645C24.634 29.6431 23.0493 30.1562 21.3441 30.1562C16.7339 30.1562 12.9978 26.4149 12.9978 21.8022C12.9978 17.1894 16.7357 13.4481 21.3441 13.4481C23.0547 13.4481 24.6448 13.963 25.9687 14.8471L29.9655 11.4514C28.4582 10.1929 26.672 9.25668 24.7114 8.75255V5.56217C30.9494 6.85309 35.9068 11.6459 37.4394 17.7962H42.4363C40.5512 7.85053 31.8218 0.330078 21.3351 0.330078C10.8483 0.330078 2.12074 7.85053 0.235637 17.7962H5.23259C6.78492 11.5684 11.8484 6.73066 18.198 5.51356V8.69314C12.2801 10.1119 7.87856 15.4412 7.87856 21.8004C7.87856 28.1595 12.2783 33.4889 18.198 34.9076V38.1448C11.3322 36.8287 5.97008 31.2815 4.925 24.3174H0C1.23215 35.0192 10.3141 43.3301 21.3351 43.3301C32.3561 43.3301 41.4398 35.0192 42.6702 24.3174H37.7452H37.747Z" fill="#6e5ed0"/>
<path d="M70.6462 25.9162C69.9123 28.833 67.734 30.9953 63.8343 30.9953C58.7366 30.9953 56.1968 27.1747 56.1968 22.4018C56.1968 17.6288 58.7528 13.666 63.935 13.666C68.0074 13.666 70.1677 16.0048 70.648 18.8243H68.1459C67.5901 17.0887 66.4335 15.7203 63.8397 15.7203C60.2566 15.7203 58.805 18.9755 58.805 22.3225C58.805 25.6696 60.1666 28.9428 63.9368 28.9428C66.4929 28.9428 67.5595 27.4322 68.1333 25.918H70.6462V25.9162Z" fill="#6e5ed0"/>
<path d="M73.4739 12.9656H75.8554V15.7077H73.4739V12.9656ZM73.4739 18.4119H75.8554V30.7774H73.4739V18.4137V18.4119Z" fill="#6e5ed0"/>
<path d="M77.9797 18.4138H80.0717V14.8237H82.4533V18.4138H85.1208V20.3169H82.4533V27.3386C82.4533 28.4891 82.7446 29.0562 83.8437 29.0562C84.1189 29.0562 84.5416 29.0436 84.8636 28.9662V30.7198C84.3078 30.9233 83.5379 30.9503 82.9281 30.9503C80.9117 30.9503 80.0717 29.897 80.0717 27.8211V20.3187H77.9797V18.4156V18.4138Z" fill="#6e5ed0"/>
<path d="M87.2561 21.7716C87.2561 20.1404 87.2435 19.1447 87.2327 18.4137H89.5693C89.6052 18.7468 89.6394 19.7677 89.6394 20.8695C90.2654 19.2473 91.708 18.1761 93.7622 18.1221V20.4717C91.2385 20.5203 89.6394 21.7176 89.6394 24.8935V30.7774H87.2579V21.7716H87.2561Z" fill="#6e5ed0"/>
<path d="M106.585 24.5713C106.585 28.1685 104.508 31.0691 100.704 31.0691C97.1078 31.0691 94.9475 28.3288 94.9475 24.6181C94.9475 20.9074 97.0844 18.1221 100.846 18.1221C104.315 18.1221 106.584 20.6913 106.584 24.5713H106.585ZM97.3938 24.5947C97.3938 27.2413 98.6817 29.1102 100.792 29.1102C102.902 29.1102 104.143 27.3241 104.143 24.6055C104.143 21.8868 102.941 20.0792 100.743 20.0792C98.545 20.0792 97.3938 21.813 97.3938 24.5947Z" fill="#6e5ed0"/>
<path d="M109.276 21.5285C109.276 20.459 109.276 19.3626 109.253 18.4137H111.566C111.625 18.7684 111.661 19.9837 111.66 20.3564C112.138 19.35 113.144 18.1221 115.489 18.1221C117.835 18.1221 119.61 19.5912 119.61 22.8428V30.7792H117.229V23.1363C117.229 21.3611 116.55 20.1512 114.737 20.1512C112.577 20.1512 111.66 21.7392 111.66 24.1662V30.7792H109.278V21.5303L109.276 21.5285Z" fill="#6e5ed0"/>
<path d="M130.038 13.7759H135.959C139.211 13.7759 140.958 15.5007 140.958 17.9529C140.958 19.9694 139.744 21.2801 138.337 21.669C139.551 22.0093 141.564 23.1994 141.564 25.8713C141.564 29.2723 139.017 30.7775 136.056 30.7775H130.038V13.7759ZM135.522 21.0875C138.458 21.0875 139.575 19.9946 139.575 18.0267C139.575 16.3505 138.409 14.9912 136.031 14.9912H131.324V21.0875H135.522ZM131.324 29.564H136.105C138.337 29.564 140.206 28.4459 140.206 25.9451C140.206 23.7827 138.823 22.3028 135.401 22.3028H131.326V29.5658L131.324 29.564Z" fill="black"/>
<path d="M153.188 28.471C153.188 29.5405 153.285 30.3903 153.357 30.7792H152.191C152.094 30.4875 152.022 29.9528 151.974 28.9085C151.562 29.8069 150.493 31.0708 147.995 31.0708C145.18 31.0708 143.967 29.2488 143.967 27.4267C143.967 24.7549 146.03 23.5414 149.669 23.5414H151.975V22.3027C151.975 21.0874 151.612 19.4616 148.846 19.4616C146.396 19.4616 146.03 20.7489 145.764 21.7445H144.55C144.696 20.4086 145.521 18.3435 148.869 18.3435C151.635 18.3435 153.188 19.5102 153.188 22.1803V28.471ZM151.999 24.5856H149.621C146.928 24.5856 145.253 25.2896 145.253 27.3781C145.253 28.9085 146.345 29.9528 148.043 29.9528C151.513 29.9528 151.999 27.6446 151.999 25.0214V24.5838V24.5856Z" fill="black"/>
<path d="M157.192 21.6942C157.192 20.6248 157.192 19.6057 157.168 18.6335H158.357C158.406 19.0224 158.429 20.6014 158.406 20.9416C158.94 19.7029 159.935 18.3418 162.433 18.3418C164.593 18.3418 166.509 19.5571 166.509 22.9077V30.7775H165.295V23.1022C165.295 20.9398 164.397 19.5319 162.286 19.5319C159.399 19.5319 158.404 21.9373 158.404 24.5839V30.7775H157.19V21.6942H157.192Z" fill="black"/>
<path d="M171.702 24.9008C172.819 23.7107 176.215 20.2611 177.841 18.6353H179.394L174.589 23.4695L180 30.7811H178.496L173.715 24.2472L171.7 26.1899V30.7811H170.486V12.8774H171.7V24.9008H171.702Z" fill="black"/>
</g>
<defs>
<clipPath id="clip0_258_1148">
<rect width="180" height="43" fill="white" transform="translate(0 0.330078)"/>
</clipPath>
</defs>
</svg>
